<?xml version="1.0" encoding="UTF-8"?>
<svg width="223px" height="156px" viewBox="0 0 223 156" version="1.1" xmlns="http://www.w3.org/2000/svg" xmlns:xlink="http://www.w3.org/1999/xlink">
    <!-- Generator: Sketch 41.2 (35397) - http://www.bohemiancoding.com/sketch -->
    <title>icon1</title>
    <desc>Created with Sketch.</desc>
    <defs></defs>
    <g id="Page-1" stroke="none" stroke-width="1" fill="none" fill-rule="evenodd">
        <g id="Desktop-HD" transform="translate(-97.000000, -434.000000)">
            <g id="icon1" transform="translate(100.000000, 437.000000)">
                <g id="Group-2">
                    <circle id="Oval-Copy-2" stroke="#FFFFFF" stroke-width="5" cx="75" cy="75" r="75"></circle>
                    <path d="M150.5,76.5 L217.5,76.5" id="Line" stroke="#FFFFFF" stroke-width="5" stroke-linecap="square"></path>
                    <path d="M83.1298851,39.437931 C82.7712644,39.0793103 82.2850575,38.8781609 81.7777778,38.8781609 C81.2704981,38.8781609 80.7842912,39.0796935 80.4256705,39.4383142 L69.9858238,49.8808429 C69.9793103,49.8873563 69.9750958,49.8954023 69.9681992,49.9022989 C69.8900383,49.9827586 69.8183908,50.0693487 69.7555556,50.1628352 C69.7413793,50.183908 69.7295019,50.2061303 69.716092,50.2275862 C69.6693487,50.3030651 69.6279693,50.3816092 69.591954,50.4632184 C69.5800766,50.4904215 69.5670498,50.5172414 69.5563218,50.5452107 C69.5199234,50.6398467 69.4885057,50.7367816 69.4670498,50.837931 L65.9463602,67.5199234 L25.5605364,107.909195 C24.8141762,108.655939 24.8141762,109.866284 25.5605364,110.613027 L39.1563218,124.208812 C39.5295019,124.581992 40.0191571,124.768582 40.5084291,124.768582 C40.9977011,124.768582 41.4869732,124.581992 41.8605364,124.208812 L82.2482759,83.8210728 L98.9310345,80.3007663 C99.032567,80.2793103 99.1295019,80.2478927 99.2241379,80.2111111 C99.251341,80.2007663 99.2777778,80.1881226 99.3045977,80.1762452 C99.3869732,80.1402299 99.4659004,80.0984674 99.5413793,80.0517241 C99.5628352,80.0383142 99.5850575,80.0268199 99.6061303,80.0122605 C99.6988506,79.9494253 99.7854406,79.8781609 99.8655172,79.8003831 C99.8724138,79.7934866 99.8808429,79.789272 99.8881226,79.7819923 L110.330268,69.3413793 C110.688506,68.9827586 110.890038,68.4965517 110.890038,67.989272 C110.890038,67.4819923 110.688506,66.9957854 110.330268,66.6371648 L83.1298851,39.437931 Z M40.5084291,120.153257 L29.616092,109.26092 L67.6996169,71.1739464 L73.1463602,76.6210728 L78.5931034,82.0681992 L40.5084291,120.153257 Z M81.9168582,79.9831418 L69.7846743,67.8509579 L72.4800766,55.0785441 L94.6896552,77.2881226 L81.9168582,79.9831418 Z M98.5360153,75.7268199 L74.0413793,51.2321839 L81.7777778,43.4942529 L106.273946,67.9900383 L98.5360153,75.7268199 Z" id="Shape" fill="#FFFFFF"></path>
                    <path d="M36.4084291,93.4819923 C36.8977011,93.4819923 37.3869732,93.2954023 37.7605364,92.9218391 L51.3590038,79.3233716 C52.1057471,78.5770115 52.105364,77.3662835 51.3590038,76.6195402 C50.6122605,75.8727969 49.4015326,75.8731801 48.6551724,76.6199234 L35.056705,90.2183908 C34.3099617,90.964751 34.3103448,92.1754789 35.056705,92.9222222 C35.4298851,93.2954023 35.9191571,93.4819923 36.4084291,93.4819923 Z" id="Shape" fill="#FFFFFF"></path>
                    <path d="M104.185441,47.494636 C104.674713,47.494636 105.163985,47.308046 105.537548,46.9348659 L112.336782,40.1363985 C113.083525,39.3896552 113.083525,38.1793103 112.336782,37.432567 C111.589655,36.6858238 110.379693,36.6858238 109.63295,37.4321839 L102.833716,44.2306513 C102.086973,44.9773946 102.086973,46.1877395 102.833716,46.9344828 C103.206897,47.3076628 103.696169,47.494636 104.185441,47.494636 Z" id="Shape" fill="#FFFFFF"></path>
                    <path d="M122.856705,54.7187739 L113.24023,54.7172414 L113.239847,54.7172414 C112.184291,54.7172414 111.327969,55.5731801 111.327969,56.6287356 C111.327969,57.6846743 112.183908,58.540613 113.239464,58.5409962 L122.855939,58.5425287 L122.856322,58.5425287 C123.911877,58.5425287 124.768199,57.6869732 124.768199,56.6310345 C124.768199,55.5750958 123.912261,54.7191571 122.856705,54.7187739 Z" id="Shape" fill="#FFFFFF"></path>
                    <path d="M93.1390805,38.4390805 C94.194636,38.4386973 95.0505747,37.5827586 95.0505747,36.5272031 L95.0494253,26.9118774 C95.0494253,25.8559387 94.1931034,25 93.1371648,25 C92.0816092,25 91.2256705,25.8563218 91.2256705,26.9118774 L91.2268199,36.5272031 C91.2268199,37.5831418 92.0827586,38.4390805 93.1390805,38.4390805 Z" id="Shape" fill="#FFFFFF"></path>
                </g>
            </g>
        </g>
    </g>
</svg>