<?xml version="1.0" encoding="UTF-8"?>
<svg width="223px" height="156px" viewBox="0 0 223 156" version="1.1" xmlns="http://www.w3.org/2000/svg" xmlns:xlink="http://www.w3.org/1999/xlink">
    <!-- Generator: Sketch 41.2 (35397) - http://www.bohemiancoding.com/sketch -->
    <title>icon6</title>
    <desc>Created with Sketch.</desc>
    <defs></defs>
    <g id="Page-1" stroke="none" stroke-width="1" fill="none" fill-rule="evenodd">
        <g id="Desktop-HD" transform="translate(-1187.000000, -434.000000)">
            <g id="icon6" transform="translate(1190.000000, 437.000000)">
                <g id="Group-2">
                    <path d="M150.5,76.5 L217.5,76.5" id="Line" stroke="#ED2213" stroke-width="5" stroke-linecap="square"></path>
                    <circle id="Oval" stroke="#FFFFFF" stroke-width="5" cx="75" cy="75" r="75"></circle>
                    <path d="M115.340292,65.5304593 L109.02714,64.4594781 C108.36952,62.3363048 107.524008,60.2882881 106.490605,58.3342171 L110.210856,53.1296242 C111.789144,50.9125052 111.544885,47.887453 109.609603,45.9709603 L104.010438,40.3717954 C102.958246,39.3196033 101.56785,38.7371399 100.083507,38.7371399 C98.9185804,38.7371399 97.8100209,39.0941336 96.8705637,39.7705428 L91.6471816,43.4907933 C89.6179541,42.4198121 87.4947808,41.5367223 85.2964509,40.8791023 L84.2442589,34.6411065 C83.7933194,31.9542589 81.4822547,30.0001879 78.7578288,30.0001879 L70.8475992,30.0001879 C68.1231733,30.0001879 65.8121086,31.9542589 65.3611691,34.6411065 L64.2713987,41.0294154 C62.1670146,41.6870355 60.1189979,42.5513361 58.1649269,43.6035282 L52.9979123,39.8832777 C52.0584551,39.2068685 50.9311065,38.8498747 49.7661795,38.8498747 C48.2818372,38.8498747 46.8726514,39.4323382 45.8392484,40.4845303 L40.2212944,46.0836952 C38.3048017,48.0001879 38.0417537,51.0252401 39.6200418,53.2423591 L43.3778706,58.5221086 C42.3444676,60.4949687 41.5177453,62.5429854 40.8789144,64.6661587 L34.6409186,65.7183507 C31.954071,66.1692902 30,68.4803549 30,71.2047808 L30,79.1150104 C30,81.8394363 31.954071,84.150501 34.6409186,84.6014405 L41.0292276,85.6912109 C41.6868476,87.795595 42.5511482,89.8436117 43.6033403,91.7976827 L39.9018789,96.9459081 C38.3235908,99.1630271 38.5678497,102.188079 40.5031315,104.104572 L46.1022965,109.703737 C47.1544885,110.755929 48.5448852,111.338392 50.0292276,111.338392 C51.1941545,111.338392 52.302714,110.981399 53.2421712,110.30499 L58.5219207,106.547161 C60.4196242,107.542985 62.4112735,108.350919 64.4592902,108.989749 L65.5114823,115.302902 C65.9624217,117.989749 68.2734864,119.94382 70.9979123,119.94382 L78.9269311,119.94382 C81.651357,119.94382 83.9624217,117.989749 84.4133612,115.302902 L85.4843424,108.989749 C87.6075157,108.332129 89.6555324,107.486618 91.6096033,106.453215 L96.8141962,110.173466 C97.7536534,110.849875 98.8810021,111.206868 100.045929,111.206868 L100.045929,111.206868 C101.530271,111.206868 102.920668,110.624405 103.97286,109.572213 L109.572025,103.973048 C111.488518,102.056555 111.751566,99.0315031 110.173278,96.8143841 L106.453027,91.5910021 C107.48643,89.618142 108.350731,87.5701253 108.989562,85.4657411 L115.302714,84.4135491 C117.989562,83.9626096 119.943633,81.6515449 119.943633,78.927119 L119.943633,71.0168894 C119.981211,68.2924635 118.02714,65.9813987 115.340292,65.5304593 Z M114.908142,78.927119 C114.908142,79.1713779 114.73904,79.3780585 114.494781,79.4156367 L106.60334,80.7308768 C105.607516,80.8999791 104.818372,81.6327557 104.574113,82.5910021 C103.860125,85.3530063 102.770355,88.0022756 101.304802,90.4636534 C100.797495,91.3279541 100.835073,92.3989353 101.417537,93.2256576 L106.058455,99.7642797 C106.189979,99.9521712 106.17119,100.234008 106.002088,100.403111 L100.402923,106.002276 C100.271399,106.1338 100.139875,106.152589 100.045929,106.152589 C99.9331942,106.152589 99.8392484,106.11501 99.7640919,106.058643 L93.2442589,101.417724 C92.4363257,100.835261 91.3465553,100.797683 90.4822547,101.30499 C88.0208768,102.770543 85.3716075,103.860313 82.6096033,104.574301 C81.6325678,104.818559 80.8997912,105.626493 80.7494781,106.603528 L79.4154489,114.494969 C79.3778706,114.739228 79.17119,114.90833 78.9269311,114.90833 L71.0167015,114.90833 C70.7724426,114.90833 70.565762,114.739228 70.5281837,114.494969 L69.2129436,106.603528 C69.0438413,105.607704 68.3110647,104.818559 67.3528184,104.574301 C64.6659708,103.879102 62.0730689,102.808121 59.6492693,101.417724 C59.2546973,101.192255 58.8037578,101.07952 58.3716075,101.07952 C57.8643006,101.07952 57.3382046,101.229833 56.9060543,101.549248 L50.3298539,106.227745 C50.2359081,106.284113 50.1419624,106.321691 50.0480167,106.321691 C49.9728601,106.321691 49.822547,106.302902 49.691023,106.171378 L44.091858,100.572213 C43.9227557,100.403111 43.9039666,100.140063 44.0354906,99.933382 L48.65762,93.4511273 C49.2400835,92.624405 49.2776618,91.5346347 48.7703549,90.670334 C47.3048017,88.2277453 46.177453,85.578476 45.4634656,82.8164718 C45.2004175,81.8582255 44.4112735,81.1254489 43.434238,80.9563466 L35.4864301,79.6035282 C35.2421712,79.5659499 35.0730689,79.3592693 35.0730689,79.1150104 L35.0730689,71.2047808 C35.0730689,70.9605219 35.2421712,70.7538413 35.4864301,70.716263 L43.3215031,69.401023 C44.3173278,69.2319207 45.125261,68.4991441 45.3695198,67.5221086 C46.0647182,64.7601044 47.1356994,62.0920459 48.5824635,59.6306681 C49.0897704,58.7663674 49.0334029,57.6953862 48.4509395,56.887453 L43.7724426,50.3112526 C43.6409186,50.1233612 43.6597077,49.841524 43.82881,49.6724217 L49.4279749,44.0732568 C49.559499,43.9417328 49.691023,43.9229436 49.7849687,43.9229436 C49.8977035,43.9229436 49.9916493,43.9605219 50.0668058,44.0168894 L56.5490605,48.6390188 C57.3757829,49.2214823 58.4655532,49.2590605 59.3298539,48.7517537 C61.7724426,47.2862004 64.4217119,46.1588518 67.1837161,45.4448643 C68.1419624,45.1818163 68.874739,44.3926722 69.0438413,43.4156367 L70.3966597,35.4678288 C70.434238,35.2235699 70.6409186,35.0544676 70.8851775,35.0544676 L78.7954071,35.0544676 C79.039666,35.0544676 79.2463466,35.2235699 79.2839248,35.4678288 L80.5991649,43.3029019 C80.7682672,44.2987265 81.5010438,45.1066597 82.4780793,45.3509186 C85.3152401,46.0649061 88.0208768,47.1734656 90.5386221,48.6578079 C91.4029228,49.1651148 92.473904,49.1275365 93.3006263,48.5450731 L99.782881,43.8853653 C99.8768267,43.8289979 99.9707724,43.7914196 100.064718,43.7914196 C100.139875,43.7914196 100.290188,43.8102088 100.421712,43.9417328 L106.020877,49.5408977 C106.189979,49.71 106.208768,49.973048 106.077244,50.1797286 L101.436326,56.6995616 C100.853862,57.5074948 100.816284,58.5972651 101.323591,59.4615658 C102.789144,61.9229436 103.878914,64.5722129 104.592902,67.3342171 C104.837161,68.3112526 105.645094,69.0440292 106.622129,69.1943424 L114.51357,70.5283716 C114.757829,70.5659499 114.926931,70.7726305 114.926931,71.0168894 L114.926931,78.927119 L114.908142,78.927119 L114.908142,78.927119 Z" id="Shape" fill="#FFFFFF"></path>
                    <path d="M74.9812109,55.5534238 C64.2713987,55.5534238 55.5720251,64.2527975 55.5720251,74.9626096 C55.5720251,85.6724217 64.2713987,94.3717954 74.9812109,94.3717954 C85.691023,94.3717954 94.3903967,85.6724217 94.3903967,74.9626096 C94.3903967,64.2527975 85.691023,55.5534238 74.9812109,55.5534238 Z M74.9812109,89.2987265 C67.0709812,89.2987265 60.6450939,82.8728392 60.6450939,74.9626096 C60.6450939,67.05238 67.0709812,60.6264927 74.9812109,60.6264927 C82.8914405,60.6264927 89.3173278,67.05238 89.3173278,74.9626096 C89.3173278,82.8728392 82.8914405,89.2987265 74.9812109,89.2987265 Z" id="Shape" fill="#FFFFFF"></path>
                </g>
            </g>
        </g>
    </g>
</svg>