<?xml version="1.0" encoding="UTF-8"?>
<svg width="223px" height="156px" viewBox="0 0 223 156" version="1.1" xmlns="http://www.w3.org/2000/svg" xmlns:xlink="http://www.w3.org/1999/xlink">
    <!-- Generator: Sketch 41.2 (35397) - http://www.bohemiancoding.com/sketch -->
    <title>icon3</title>
    <desc>Created with Sketch.</desc>
    <defs></defs>
    <g id="Page-1" stroke="none" stroke-width="1" fill="none" fill-rule="evenodd">
        <g id="Desktop-HD" transform="translate(-533.000000, -434.000000)">
            <g id="icon3" transform="translate(536.000000, 437.000000)">
                <g id="Group-2">
                    <circle id="Oval-Copy-4" stroke="#FFFFFF" stroke-width="5" cx="75" cy="75" r="75"></circle>
                    <path d="M150.5,76.5 L217.5,76.5" id="Line" stroke="#FFFFFF" stroke-width="5" stroke-linecap="square"></path>
                    <path d="M121.324283,31.3922336 C118.61543,28.68375 113.182602,30.2290574 104.226496,36.2568443 C96.6181762,41.377623 87.4920287,49.1332992 78.5292828,58.0960451 C65.2419262,71.3832172 55.1397951,84.4291598 51.7762295,92.483791 C51.222582,92.2831352 50.6484631,92.1226844 50.0560861,92.0055738 C46.5755943,91.3171107 42.7954098,92.197377 39.6843238,94.4189754 C35.219918,97.6069672 34.0375615,102.159529 33.8658607,102.926926 C32.9260246,106.436926 31.146127,109.785922 28.7164959,112.614652 C27.935082,113.524426 28.0243443,114.892131 28.9175205,115.69291 C32.0393033,118.490656 36.0326844,119.893955 40.186332,119.893955 C44.1894877,119.893955 48.3416598,118.590246 52.0038115,115.975082 C53.7210041,114.748832 55.0210246,113.39293 55.2727664,113.12459 C58.3844057,109.780758 59.7056352,105.396393 59.0501844,101.390471 C66.9528484,98.5575 80.730041,88.0784016 94.6206557,74.1877869 C103.583402,65.225041 111.339262,56.098709 116.459857,48.4905738 C122.487459,39.5340984 124.033135,34.1012705 121.324283,31.3922336 Z M52.0477049,110.11752 C51.9293033,110.243852 50.8498566,111.381209 49.4417623,112.386332 C44.3272541,116.037971 38.0656148,116.460307 33.5174795,113.64873 C35.647418,110.728525 37.2303484,107.436701 38.1397541,104.011721 L38.1397541,104.011537 C38.1498975,103.973176 38.1591189,103.934447 38.1672336,103.895348 C38.1747951,103.860492 38.9405328,100.367828 42.2465574,98.0071721 C44.3729918,96.4884221 46.9082992,95.8776025 49.2014549,96.3309221 C51.0927459,96.7045697 52.6826844,97.7842008 53.6784016,99.3702664 C55.6323975,102.482828 54.9454098,107.003852 52.0477049,110.11752 Z M57.5482172,97.2534221 C57.5030328,97.1778074 56.8344877,95.8204303 55.588873,94.8116189 C56.6620492,91.9425 58.9723566,88.0645697 62.1924385,83.6115984 L69.100123,90.5192828 C64.2406762,94.0172951 60.2587295,96.297541 57.5482172,97.2534221 Z M72.6676639,87.8517418 L64.86625,80.0503279 C66.2144057,78.314877 67.6730328,76.5172746 69.2275615,74.6785451 L78.0442418,83.4952254 C76.1782172,85.0711475 74.381168,86.5253484 72.6676639,87.8517418 Z M112.127684,47.0162705 C107.161824,54.1934016 99.8369672,62.7358402 91.5029303,71.0695082 C88.0038115,74.568627 84.6114754,77.7516393 81.3882582,80.6032377 L72.1195492,71.3345287 C75.0593033,68.0089549 78.2646311,64.5959631 81.6471926,61.2137705 C89.9810451,52.8797336 98.5234836,45.5550615 105.70043,40.5886475 C114.537398,34.4739959 117.586701,34.4642213 118.172439,34.5442623 C118.252848,35.1294467 118.242152,38.1798566 112.127684,47.0162705 Z" id="Shape" fill="#FFFFFF"></path>
                    <path d="M50.1783607,104.161291 C49.1118238,103.574262 47.7712295,103.962848 47.1840164,105.02957 C47.1246311,105.137459 47.0528893,105.23834 46.9704508,105.329447 C46.8055738,105.500963 46.2637295,106.024734 45.7008607,106.426967 C44.8469672,107.036496 43.9255738,107.473402 42.9621311,107.725512 C41.7842008,108.033689 41.0793238,109.238361 41.3875,110.416291 C41.6468033,111.407029 42.5401639,112.063217 43.5185451,112.063217 C43.7033402,112.063217 43.8909016,112.039795 44.0780943,111.991107 C45.562541,111.602705 46.9706352,110.938033 48.2632787,110.015164 C49.0930123,109.422602 50.1944057,108.337807 50.2019672,108.329508 C50.5296926,107.974119 50.8140779,107.579078 51.0471926,107.155451 C51.6340369,106.08873 51.245082,104.748135 50.1783607,104.161291 Z" id="Shape" fill="#FFFFFF"></path>
                </g>
            </g>
        </g>
    </g>
</svg>