<?xml version="1.0" encoding="UTF-8"?>
<svg width="223px" height="156px" viewBox="0 0 223 156" version="1.1" xmlns="http://www.w3.org/2000/svg" xmlns:xlink="http://www.w3.org/1999/xlink">
    <!-- Generator: Sketch 41.2 (35397) - http://www.bohemiancoding.com/sketch -->
    <title>icon2</title>
    <desc>Created with Sketch.</desc>
    <defs></defs>
    <g id="Page-1" stroke="none" stroke-width="1" fill="none" fill-rule="evenodd">
        <g id="Desktop-HD" transform="translate(-315.000000, -434.000000)">
            <g id="icon2" transform="translate(318.000000, 437.000000)">
                <g id="Group-2">
                    <circle id="Oval-Copy-3" stroke="#FFFFFF" stroke-width="5" cx="75" cy="75" r="75"></circle>
                    <path d="M150.5,76.5 L217.5,76.5" id="Line" stroke="#FFFFFF" stroke-width="5" stroke-linecap="square"></path>
                    <path d="M55.9794118,118.126471 C55.7235294,118.126471 55.4676471,118.061765 55.2382353,117.926471 C54.6235294,117.567647 54.3529412,116.823529 54.5970588,116.152941 L69.9588235,73.9205882 L51.3911765,68.6235294 C50.9117647,68.4882353 50.5323529,68.1176471 50.3852941,67.6411765 C50.2411765,67.1647059 50.3441176,66.6441176 50.6676471,66.2617647 L88.3294118,21.5205882 C88.7764706,20.9882353 89.5352941,20.85 90.1470588,21.1705882 C90.7588235,21.4970588 91.0617647,22.2117647 90.8676471,22.8764706 L80.0088235,60.5441176 L98.6764706,65.8705882 C99.1588235,66.0058824 99.5382353,66.3794118 99.6823529,66.8588235 C99.8294118,67.3382353 99.7176471,67.8617647 99.3911765,68.2411765 L57.0970588,117.614706 C56.8088235,117.947059 56.3970588,118.126471 55.9794118,118.126471 Z M54.3794118,66.4176471 L72.2823529,71.5205882 C72.6764706,71.6323529 73.0029412,71.9029412 73.1911765,72.2647059 C73.3764706,72.6294118 73.4029412,73.0529412 73.2617647,73.4352941 L60.1264706,109.547059 L95.6647059,68.0617647 L77.7852941,62.9647059 C77.4088235,62.8588235 77.0911765,62.6058824 76.9,62.2647059 C76.7088235,61.9235294 76.6647059,61.5205882 76.7735294,61.1441176 L86.1264706,28.7058824 L54.3794118,66.4176471 Z" id="Shape" fill="#FFFFFF"></path>
                </g>
            </g>
        </g>
    </g>
</svg>