<?xml version="1.0" encoding="UTF-8"?>
<svg width="223px" height="156px" viewBox="0 0 223 156" version="1.1" xmlns="http://www.w3.org/2000/svg" xmlns:xlink="http://www.w3.org/1999/xlink">
    <!-- Generator: Sketch 41.2 (35397) - http://www.bohemiancoding.com/sketch -->
    <title>icon5</title>
    <desc>Created with Sketch.</desc>
    <defs></defs>
    <g id="Page-1" stroke="none" stroke-width="1" fill="none" fill-rule="evenodd">
        <g id="Desktop-HD" transform="translate(-969.000000, -434.000000)">
            <g id="icon5" transform="translate(972.000000, 437.000000)">
                <g id="Group-2">
                    <circle id="Oval-Copy-5" stroke="#FFFFFF" stroke-width="5" cx="75" cy="75" r="75"></circle>
                    <g id="icon5" transform="translate(30.000000, 30.000000)" fill="#FFFFFF">
                        <g id="Layer_1">
                            <g id="Group">
                                <path d="M89.4520655,1.82584383 C89.356398,1.05211587 88.7470277,0.442745592 87.9735264,0.347078086 C81.0029471,-0.515062972 73.8099748,0.236448363 67.1699244,2.5195466 C60.529194,4.80287154 54.3942317,8.63433249 49.4288161,13.5997481 L38.0976574,24.9309068 L21.741461,27.0403526 C21.368539,27.0884131 21.0223678,27.258665 20.7564484,27.5243577 L4.98649874,43.2943073 C4.54012594,43.7406801 4.37780856,44.3978841 4.56528967,45.0009068 C4.75231738,45.6039295 5.25853904,46.0534761 5.87924433,46.1684131 L17.8029975,48.376927 L20.1459446,50.7198741 L15.1578589,53.4210076 C14.685869,53.6764987 14.3621411,54.1401008 14.2848363,54.6712594 C14.2075315,55.2024181 14.3854912,55.7387909 14.7649874,56.1182872 L33.680403,75.0337028 C34.0016373,75.354937 34.4350882,75.5317632 34.8828212,75.5317632 C34.9639798,75.5317632 35.0460453,75.525869 35.1276574,75.5140806 C35.6588161,75.4367758 36.1224181,75.1130479 36.3779093,74.6410579 L39.0792695,69.6529723 L41.4222166,71.9959194 L43.6307305,83.9196725 C43.7458942,84.5406045 44.1952141,85.0465995 44.7982368,85.2338539 C44.9639547,85.2853149 45.1337531,85.3102519 45.3024181,85.3102519 C45.7467506,85.3102519 46.1811083,85.1359194 46.505063,84.8121914 L62.2750126,69.0422418 C62.5407053,68.7765491 62.7109572,68.4301511 62.7590176,68.0574559 L64.8686902,51.7010327 L76.1998489,40.3696474 C81.1652645,35.4042317 84.9967254,29.2694962 87.2800504,22.6287657 C89.5629219,15.9887154 90.3139798,8.79483627 89.4520655,1.82584383 Z M18.0621159,44.9671285 L9.67670025,43.414005 L22.7511839,30.339068 L34.161461,28.8675567 L18.0621159,44.9671285 Z M34.4731738,71.0179345 L18.7812091,55.3261965 L22.6543829,53.2287657 L36.5703778,67.1449874 L34.4731738,71.0179345 Z M59.4600756,67.0479597 L46.3853652,80.12267 L44.8320151,71.7374811 L60.9315869,55.6379093 L59.4600756,67.0479597 Z M73.7947859,37.9657179 L42.9975567,68.7629471 L21.0361965,46.8015869 L51.8334257,16.004131 C56.3080353,11.5292947 61.8086902,8.05239295 67.7675063,5.91823678 C68.5371537,9.88367758 70.4761209,13.5623426 73.3565743,16.4425693 C76.236801,19.3230227 79.9152393,21.2619899 83.8809068,22.031864 C81.7465239,27.9902267 78.2693955,33.4908816 73.7947859,37.9657179 Z M84.9044584,18.7648866 C81.4579345,18.1770529 78.2519395,16.5289421 75.7609572,14.0381864 C73.2699748,11.5474307 71.6220907,8.34120907 71.0342569,4.89468514 C75.9629471,3.56644836 81.1403275,3.11350126 86.2209068,3.57823678 C86.685869,8.65881612 86.2326952,13.8361965 84.9044584,18.7648866 Z" id="Shape"></path>
                                <path d="M50.1744332,25.0374559 C46.1527708,29.0593451 46.1527708,35.6030479 50.1744332,39.624937 C52.1854912,41.635995 54.8265491,42.6411839 57.4682872,42.6411839 C60.1091184,42.6411839 62.7513098,41.6355416 64.7619144,39.624937 L64.7621411,39.624937 C68.7838035,35.6032746 68.7838035,29.0593451 64.7619144,25.0374559 C60.7400252,21.0157935 54.1960957,21.0160202 50.1744332,25.0374559 Z M62.3575315,37.2203275 C59.6611587,39.9164736 55.2745088,39.9160202 52.5790428,37.2203275 C49.8828967,34.5244081 49.8828967,30.1377582 52.5790428,27.4418388 C53.9267758,26.0938791 55.6975315,25.4201259 57.4680605,25.4201259 C59.2388161,25.4201259 61.0093451,26.0941058 62.3570781,27.4418388 C65.0532242,30.1377582 65.0532242,34.5244081 62.3575315,37.2203275 Z" id="Shape"></path>
                                <path d="M22.2993703,67.8207809 C21.6351385,67.1567758 20.5587657,67.1567758 19.8947607,67.8207809 L5.3070529,82.408262 C4.64304786,83.072267 4.64304786,84.1488665 5.3070529,84.8126448 C5.63916877,85.144534 6.07443325,85.3107053 6.50947103,85.3107053 C6.94450882,85.3107053 7.3797733,85.1447607 7.71188917,84.8126448 L22.2993703,70.2251637 C22.9631486,69.5613854 22.9631486,68.4847859 22.2993703,67.8207809 Z" id="Shape"></path>
                                <path d="M24.5432494,72.4694962 L17.9709824,79.0417632 C17.3069773,79.7057683 17.3069773,80.7823678 17.9709824,81.4461461 C18.3030982,81.7780353 18.7383627,81.9442065 19.1734005,81.9442065 C19.6084383,81.9442065 20.0437028,81.778262 20.3758186,81.4461461 L26.9480856,74.8738791 C27.6120907,74.2098741 27.6120907,73.1332746 26.9480856,72.4694962 C26.2838539,71.8054912 25.2074811,71.8054912 24.5432494,72.4694962 Z" id="Shape"></path>
                                <path d="M15.6702015,82.0471285 C14.9588161,82.0471285 14.3095466,82.5059698 14.0692443,83.1745088 C13.8248615,83.8541562 14.0522418,84.6346851 14.6169521,85.0824181 C15.1943577,85.5403526 16.0374559,85.5652897 16.640932,85.1424937 C17.2847607,84.6913602 17.5459194,83.8253652 17.239194,83.0967506 C16.9868766,82.4676574 16.3448615,82.0471285 15.6702015,82.0471285 Z" id="Shape"></path>
                                <path id="Shape"></path>
                                <path d="M10.8612091,86.1517632 L9.95622166,87.0567506 C9.29198992,87.7207557 9.29198992,88.7973552 9.95599496,89.4613602 C10.2881108,89.7932494 10.7231486,89.9594207 11.1584131,89.9594207 C11.5934509,89.9594207 12.0287154,89.7934761 12.3606045,89.4615869 L13.2655919,88.5565995 C13.9298237,87.8925945 13.9298237,86.815995 13.2658186,86.1522166 C12.6018136,85.4884383 11.5249874,85.4877582 10.8612091,86.1517632 Z" id="Shape"></path>
                                <path d="M9.63521411,71.1870529 C8.97098237,70.5230479 7.89460957,70.5230479 7.23060453,71.1870529 L0.658337531,77.7593199 C-0.0056675063,78.4233249 -0.0056675063,79.4999244 0.658337531,80.1637028 C0.990453401,80.4955919 1.42571788,80.6617632 1.86075567,80.6617632 C2.29579345,80.6617632 2.73105793,80.4958186 3.0631738,80.1637028 L9.63544081,73.5914358 C10.2992191,72.9276574 10.2992191,71.8510579 9.63521411,71.1870529 Z" id="Shape"></path>
                                <path d="M12.3488161,70.5346096 C13.038665,70.3611839 13.5564484,69.7599748 13.6283123,69.05267 C13.6988161,68.3601008 13.3179597,67.6813602 12.6997481,67.3689673 C12.0434509,67.0370781 11.2209824,67.1755919 10.7118136,67.7076574 C10.1665995,68.2773552 10.0879345,69.1644332 10.518665,69.8239043 C10.505063,69.8035013 10.4946348,69.788539 10.5220655,69.8304786 C10.5506297,69.8724181 10.5408816,69.8572292 10.5272796,69.8370529 C10.9278589,70.4189924 11.6589673,70.7080353 12.3488161,70.5346096 Z" id="Shape"></path>
                                <path d="M16.7456675,66.4814358 L17.6504282,65.5764484 C18.3144332,64.9124433 18.3144332,63.8358438 17.6502015,63.1720655 C16.9855164,62.5078338 15.9089169,62.5080605 15.2458186,63.1722922 L14.3410579,64.0772796 C13.6770529,64.7412846 13.6770529,65.8178841 14.3412846,66.4816625 C14.6734005,66.8135516 15.1084383,66.9794962 15.5434761,66.9794962 C15.9785139,66.9794962 16.4137783,66.8135516 16.7456675,66.4814358 Z" id="Shape"></path>
                            </g>
                        </g>
                    </g>
                    <path d="M150.5,76.5 L217.5,76.5" id="Line" stroke="#FFFFFF" stroke-width="5" stroke-linecap="square"></path>
                </g>
            </g>
        </g>
    </g>
</svg>