<?xml version="1.0" encoding="UTF-8"?>
<svg width="223px" height="156px" viewBox="0 0 223 156" version="1.1" xmlns="http://www.w3.org/2000/svg" xmlns:xlink="http://www.w3.org/1999/xlink">
    <!-- Generator: Sketch 41.2 (35397) - http://www.bohemiancoding.com/sketch -->
    <title>icon4</title>
    <desc>Created with Sketch.</desc>
    <defs></defs>
    <g id="Page-1" stroke="none" stroke-width="1" fill="none" fill-rule="evenodd">
        <g id="Desktop-HD" transform="translate(-751.000000, -434.000000)">
            <g id="icon4" transform="translate(754.000000, 437.000000)">
                <g id="Group-2">
                    <circle id="Oval-Copy" stroke="#FFFFFF" stroke-width="5" cx="75" cy="75" r="75"></circle>
                    <path d="M150.5,75.5 L217.5,75.5" id="Line" stroke="#FFFFFF" stroke-width="5" stroke-linecap="square"></path>
                    <g id="icon4" transform="translate(25.000000, 25.000000)" fill="#FFFFFF">
                        <g id="Capa_1">
                            <g id="Group">
                                <path d="M70.9916667,0 L29.0083333,0 C24.9616667,0 21.6666667,3.295 21.6666667,7.34166667 L21.6666667,92.6566667 C21.6666667,96.705 24.9616667,100 29.0083333,100 L70.99,100 C75.0383333,100 78.3333333,96.705 78.3333333,92.6583333 L78.3333333,7.34166667 C78.3333333,3.295 75.0383333,0 70.9916667,0 Z M25,13.3333333 L75,13.3333333 L75,76.6666667 L25,76.6666667 L25,13.3333333 Z M29.0083333,3.33333333 L70.99,3.33333333 C73.2016667,3.33333333 75,5.13166667 75,7.34166667 L75,10 L25,10 L25,7.34166667 C25,5.13166667 26.7983333,3.33333333 29.0083333,3.33333333 Z M70.9916667,96.6666667 L29.0083333,96.6666667 C26.7983333,96.6666667 25,94.8683333 25,92.6583333 L25,80 L75,80 L75,92.6583333 C75,94.8683333 73.2016667,96.6666667 70.9916667,96.6666667 Z" id="Shape"></path>
                                <path d="M50,81.6666667 C46.3233333,81.6666667 43.3333333,84.6566667 43.3333333,88.3333333 C43.3333333,92.01 46.3233333,95 50,95 C53.6766667,95 56.6666667,92.01 56.6666667,88.3333333 C56.6666667,84.6566667 53.6766667,81.6666667 50,81.6666667 Z M50,91.6666667 C48.1616667,91.6666667 46.6666667,90.1716667 46.6666667,88.3333333 C46.6666667,86.495 48.1616667,85 50,85 C51.8383333,85 53.3333333,86.495 53.3333333,88.3333333 C53.3333333,90.1716667 51.8383333,91.6666667 50,91.6666667 Z" id="Shape"></path>
                                <path d="M43.3333333,8.33333333 L50,8.33333333 C50.9216667,8.33333333 51.6666667,7.58833333 51.6666667,6.66666667 C51.6666667,5.745 50.9216667,5 50,5 L43.3333333,5 C42.4116667,5 41.6666667,5.745 41.6666667,6.66666667 C41.6666667,7.58833333 42.4116667,8.33333333 43.3333333,8.33333333 Z" id="Shape"></path>
                                <path d="M55,8.33333333 L56.6666667,8.33333333 C57.5883333,8.33333333 58.3333333,7.58833333 58.3333333,6.66666667 C58.3333333,5.745 57.5883333,5 56.6666667,5 L55,5 C54.0783333,5 53.3333333,5.745 53.3333333,6.66666667 C53.3333333,7.58833333 54.0783333,8.33333333 55,8.33333333 Z" id="Shape"></path>
                                <path d="M94.3533333,7.615 C93.7016667,6.96333333 92.6483333,6.96333333 91.9966667,7.615 C91.345,8.26666667 91.345,9.32 91.9966667,9.97166667 C98.2233333,16.1983333 98.2233333,26.33 91.9966667,32.5583333 C91.345,33.21 91.345,34.2633333 91.9966667,34.915 C92.3216667,35.24 92.7483333,35.4033333 93.175,35.4033333 C93.6016667,35.4033333 94.0283333,35.24 94.3533333,34.915 C101.88,27.39 101.88,15.1416667 94.3533333,7.615 Z" id="Shape"></path>
                                <path d="M87.335,11.4083333 C86.6833333,10.7566667 85.63,10.7566667 84.9783333,11.4083333 C84.3266667,12.06 84.3266667,13.1133333 84.9783333,13.765 C87.04,15.8266667 88.175,18.5733333 88.175,21.4966667 C88.175,24.42 87.04,27.165 84.9783333,29.2266667 C84.3266667,29.8783333 84.3266667,30.9316667 84.9783333,31.5833333 C85.3033333,31.9083333 85.73,32.0716667 86.1566667,32.0716667 C86.5833333,32.0716667 87.01,31.9083333 87.335,31.5833333 C90.0266667,28.8933333 91.5083333,25.31 91.5083333,21.4966667 C91.5083333,17.6833333 90.0283333,14.0983333 87.335,11.4083333 Z" id="Shape"></path>
                                <path d="M8.00333333,9.97166667 C8.655,9.32 8.655,8.26666667 8.00333333,7.615 C7.35166667,6.96333333 6.29833333,6.96333333 5.64666667,7.615 C-1.88,15.1416667 -1.88,27.3883333 5.64666667,34.915 C5.97166667,35.24 6.39833333,35.4033333 6.825,35.4033333 C7.25166667,35.4033333 7.67833333,35.24 8.00333333,34.915 C8.655,34.2633333 8.655,33.21 8.00333333,32.5583333 C1.775,26.3316667 1.775,16.2 8.00333333,9.97166667 Z" id="Shape"></path>
                                <path d="M15.0216667,10.9483333 C14.37,10.2966667 13.3166667,10.2966667 12.665,10.9483333 C9.97333333,13.6383333 8.49166667,17.2216667 8.49166667,21.035 C8.49166667,24.8483333 9.97333333,28.4316667 12.665,31.1233333 C12.99,31.4483333 13.4166667,31.6116667 13.8433333,31.6116667 C14.27,31.6116667 14.6966667,31.4483333 15.0216667,31.1233333 C15.6733333,30.4716667 15.6733333,29.4183333 15.0216667,28.7666667 C12.96,26.705 11.825,23.9583333 11.825,21.035 C11.825,18.1116667 12.9583333,15.3666667 15.0216667,13.305 C15.6716667,12.655 15.6716667,11.6 15.0216667,10.9483333 Z" id="Shape"></path>
                            </g>
                        </g>
                    </g>
                </g>
            </g>
        </g>
    </g>
</svg>