<?xml version="1.0" encoding="UTF-8" standalone="no"?>
<svg width="100px" height="100px" viewBox="0 0 100 100" version="1.1" xmlns="http://www.w3.org/2000/svg" xmlns:xlink="http://www.w3.org/1999/xlink">
    <!-- Generator: Sketch 44.1 (41455) - http://www.bohemiancoding.com/sketch -->
    <title>fb-logo</title>
    <desc>Created with Sketch.</desc>
    <defs></defs>
    <g id="Page-1" stroke="none" stroke-width="1" fill="none" fill-rule="evenodd">
        <path d="M50,0 C22.3856777,0 0,22.3856777 0,50 C0,77.6143223 22.3856777,100 50,100 C77.6143223,100 100,77.6143223 100,50 C100,22.3856777 77.6143223,0 50,0 Z M60.2913162,36.8061188 L56.4317941,36.8078316 C53.4052665,36.8078316 52.8200579,38.2460174 52.8200579,40.356194 L52.8200579,45.009316 L60.03725,45.009316 L60.0338244,52.2973041 L52.8206289,52.2973041 L52.8206289,71 L45.292848,71 L45.292848,52.2973041 L39,52.2973041 L39,45.009316 L45.292848,45.009316 L45.292848,39.6345318 C45.292848,33.3970646 49.1038406,30 54.6676043,30 L60.2918871,30.008564 L60.2918871,36.8061188 L60.2913162,36.8061188 Z" id="Shape" fill="#FFFFFF" fill-rule="nonzero"></path>
    </g>
</svg>