<?xml version="1.0" encoding="UTF-8" standalone="no"?>
<svg width="100px" height="100px" viewBox="0 0 100 100" version="1.1" xmlns="http://www.w3.org/2000/svg" xmlns:xlink="http://www.w3.org/1999/xlink">
    <!-- Generator: Sketch 44.1 (41455) - http://www.bohemiancoding.com/sketch -->
    <title>ig-logo</title>
    <desc>Created with Sketch.</desc>
    <defs></defs>
    <g id="Page-1" stroke="none" stroke-width="1" fill="none" fill-rule="evenodd">
        <g id="instagram-social-network-logo-of-photo-camera" fill-rule="nonzero" fill="#FFFFFF">
            <path d="M66.4845282,50.3381048 C66.4845282,48.7502351 66.244166,47.2163545 65.80116,45.7675251 L70.4908114,45.7675251 L70.4908114,68.2706043 C70.4908114,69.436176 69.537498,70.3880104 68.3719262,70.3880104 L31.2755332,70.3880104 C30.110701,70.3880104 29.1581271,69.436176 29.1581271,68.2706043 L29.1581271,45.7675251 L34.051162,45.7675251 C33.6074163,47.2163545 33.3677937,48.7502351 33.3677937,50.3381048 C33.3677937,59.1989649 40.7813036,66.3809876 49.926161,66.3809876 C59.0710183,66.3809876 66.4845282,59.1989649 66.4845282,50.3381048 Z M62.0463326,39.6948665 C60.7261894,39.6948665 59.647148,38.6158251 59.6478876,37.297161 L59.6478876,31.5565721 C59.6478876,30.2364289 60.7261894,29.1581271 62.0463326,29.1581271 L68.0672208,29.1581271 C69.3866244,29.1581271 70.4649263,30.2364289 70.4649263,31.5565721 L70.4649263,37.297161 C70.4649263,38.6165646 69.3866244,39.6948665 68.0672208,39.6948665 L62.0463326,39.6948665 Z M49.926161,60.1263933 C44.017837,60.1263933 39.228194,55.4850918 39.228194,49.7597564 C39.228194,44.0344209 44.017837,39.3931195 49.926161,39.3931195 C55.834485,39.3931195 60.6241279,44.0344209 60.6241279,49.7597564 C60.6241279,55.4850918 55.834485,60.1263933 49.926161,60.1263933 Z M69.6735799,76.5116997 L30.0774201,76.5116997 C26.3151969,76.5116997 23.2393003,73.727196 23.2393003,69.6750591 L23.2393003,30.0766805 C23.2393003,26.0230644 26.3151969,23.2393003 30.0774201,23.2393003 L69.6735799,23.2393003 C73.4350635,23.2393003 76.5116997,26.0230644 76.5116997,30.0766805 L76.5116997,69.6750591 C76.5116997,73.727196 73.4343239,76.5116997 69.6735799,76.5116997 Z M50,0 C22.3856777,0 0,22.3856777 0,50 C0,77.6143223 22.3856777,100 50,100 C77.6143223,100 100,77.6143223 100,50 C100,22.3856777 77.6143223,0 50,0 Z" id="Shape"></path>
        </g>
    </g>
</svg>