<?xml version="1.0" encoding="UTF-8" standalone="no"?>
<svg width="100px" height="100px" viewBox="0 0 100 100" version="1.1" xmlns="http://www.w3.org/2000/svg" xmlns:xlink="http://www.w3.org/1999/xlink">
    <!-- Generator: Sketch 44.1 (41455) - http://www.bohemiancoding.com/sketch -->
    <title>in-logo</title>
    <desc>Created with Sketch.</desc>
    <defs></defs>
    <g id="Page-1" stroke="none" stroke-width="1" fill="none" fill-rule="evenodd">
        <g id="linkedin-logo" fill-rule="nonzero" fill="#FFFFFF">
            <path d="M37.2598324,70.669764 L27.7949569,70.669764 L27.7949569,40.2168371 L37.2598324,40.2168371 L37.2598324,70.669764 L37.2598324,70.669764 Z M32.5294612,36.0540829 C29.4957413,36.0540829 27.0399712,33.5948685 27.0399712,30.5652817 C27.0406601,27.5384504 29.4957413,25.079236 32.5294612,25.079236 C35.5549149,25.079236 38.0141293,27.5384504 38.0141293,30.5652817 C38.0141293,33.5955574 35.554226,36.0540829 32.5294612,36.0540829 Z M72.7090288,70.669764 L63.2517307,70.669764 L63.2517307,55.8600582 C63.2517307,52.3282957 63.1862894,47.7859821 58.3319242,47.7859821 C53.4093623,47.7859821 52.6523101,51.6325516 52.6523101,55.6044928 L52.6523101,70.6690752 L43.1957008,70.6690752 L43.1957008,40.2168371 L52.2734395,40.2168371 L52.2734395,44.3782136 L52.4008778,44.3782136 C53.6649278,41.9837516 56.7510007,39.4597848 61.3560002,39.4597848 C70.9400477,39.4597848 72.7090288,45.7669464 72.7090288,53.9663942 L72.7090288,70.669764 Z M50,0 C22.3856777,0 0,22.3856777 0,50 C0,77.6143223 22.3856777,100 50,100 C77.6143223,100 100,77.6143223 100,50 C100,22.3856777 77.6143223,0 50,0 Z" id="Shape"></path>
        </g>
    </g>
</svg>