<?xml version="1.0" encoding="UTF-8" standalone="no"?>
<svg width="19px" height="33px" viewBox="0 0 19 33" version="1.1" xmlns="http://www.w3.org/2000/svg" xmlns:xlink="http://www.w3.org/1999/xlink">
    <!-- Generator: Sketch 44.1 (41455) - http://www.bohemiancoding.com/sketch -->
    <title>noun_1075152_cc</title>
    <desc>Created with Sketch.</desc>
    <defs></defs>
    <g id="Page-1" stroke="none" stroke-width="1" fill="none" fill-rule="evenodd">
        <g id="noun_1075152_cc" transform="translate(-1.000000, 0.000000)" fill-rule="nonzero" fill="#000000">
            <g id="Group">
                <g id="Shape">
                    <g transform="translate(10.000000, 16.500000) rotate(-180.000000) translate(-10.000000, -16.500000) translate(0.000000, -0.000000)">
                        <path d="M5.6862915,16.8587234 L18.4107158,4.1342992 C19.1941338,3.3508811 19.1952621,2.08342284 18.4142136,1.30237426 C17.6277197,0.51588035 16.365269,0.52289168 15.5822887,1.30587203 L1.4471486,15.4410121 C1.4465655,15.4415952 1.4459828,15.4421786 1.4454005,15.4427623 C1.4448173,15.4433441 1.4442339,15.4439268 1.4436508,15.4445099 C1.050989,15.8371717 0.8561136,16.3484688 0.8568423,16.8595052 C0.8587273,17.3718101 1.0537077,17.8829939 1.4436508,18.272937 C1.4442339,18.2735201 1.4448173,18.2741028 1.445401,18.2746851 C1.4459828,18.2752683 1.4465655,18.2758517 1.4471486,18.2764348 L15.5822887,32.4115749 C16.3657067,33.1949929 17.633165,33.1961212 18.4142136,32.4150726 C19.2007075,31.6285787 19.1936961,30.3661281 18.4107158,29.5831477 L5.6862915,16.8587234 Z"></path>
                    </g>
                </g>
            </g>
        </g>
    </g>
</svg>